<?xml version="1.0" encoding="UTF-8"?>
<svg id="Layer_1" xmlns="http://www.w3.org/2000/svg" version="1.1" viewBox="0 0 3108 826">
  <!-- Generator: Adobe Illustrator 29.0.1, SVG Export Plug-In . SVG Version: 2.1.0 Build 192)  -->
  <path d="M3107.6,472.1v59h-19.7v19.7h-19.7v19.7h-19.7v19.7h-19.7v39.3h19.7v19.7h19.7v19.7h-39.3v-19.7h-19.7v-19.7h-19.7v19.7h-19.7v19.7h-19.7v19.7h-19.7v19.7h-19.7v19.7h-19.7v19.7h-19.7v19.7h-19.7v19.7h-19.7v19.7h-19.7v19.7h-59v-59h19.7v19.7h19.7v-19.7h19.7v-19.7h19.7v-19.7h19.7v-19.7h19.7v-19.7h19.7v-19.7h19.7v-19.7h19.7v-19.7h19.7v-19.7h19.7v-19.7h-19.7v-19.7h-19.7v-19.7h-19.7v-39.3h19.7v19.7h19.7v19.7h39.3v-19.7h19.7v-19.7h19.7v-19.7h19.7v-19.7h59ZM3068.3,511.4h19.7v-19.7h-19.7v19.7ZM3028.9,531.1v19.7h19.7v-19.7h-19.7ZM2989.6,570.4v19.7h19.7v-19.7h-19.7ZM2930.6,590.1h19.7v19.7h-19.7v-19.7ZM2911,609.7h19.7v19.7h-19.7v-19.7ZM2891.3,629.4h19.7v19.7h-19.7v-19.7ZM2871.7,649.1h19.7v19.7h-19.7v-19.7ZM2852,668.7h19.7v19.7h-19.7v-19.7ZM2832.3,688.4h19.7v19.7h-19.7v-19.7ZM2812.7,708h19.7v19.7h-19.7v-19.7ZM2793,727.7h19.7v19.7h-19.7v-19.7ZM2773.4,747.4h19.7v19.7h-19.7v-19.7Z"/>
  <path d="M2694.6,668.7v19.7h19.7v39.3h-19.7v19.7h-19.7v19.7h-19.7v19.7h-19.7v19.7h-19.7v19.7h-176.9v-19.7h-19.7v-19.7h-19.7v-19.7h-19.7v-19.7h-19.7v-39.3h19.7v-19.7h39.3v39.3h19.7v19.7h19.7v19.7h19.7v19.7h137.6v-19.7h19.7v-19.7h19.7v-39.3h-19.7v-19.7h-19.7v-19.7h-176.9v-19.7h-39.3v-19.7h-19.7v-19.7h19.7v-19.7h39.3v-19.7h39.3v-19.7h78.6v19.7h39.3v19.7h19.7v19.7h-39.3v-19.7h-98.3v19.7h-19.7v19.7h19.7v19.7h196.6v19.7h19.7Z"/>
  <path d="M2301.3,609.7v19.7h19.7v39.3h-19.7v19.7h-39.3v19.7h-39.3v-19.7h19.7v-19.7h19.7v-19.7h-19.7v-19.7h-19.7v-19.7h-19.7v-19.7h-98.3v19.7h-19.7v19.7h-19.7v19.7h-19.7v157.3h-19.7v19.7h-39.3v-19.7h-19.7v-19.7h19.7v-216.3h19.7v-19.7h39.3v59h19.7v-19.7h19.7v-19.7h39.3v-19.7h59v19.7h59v19.7h39.3v19.7h19.7Z"/>
  <path d="M1888.4,786.7h39.3v19.7h-19.7v19.7h-39.3v-19.7h-19.7v-19.7h-39.3v19.7h-39.3v19.7h-118v-19.7h-19.7v-19.7h-19.7v-19.7h-19.7v-19.7h-19.7v-98.3h19.7v-19.7h19.7v-19.7h19.7v-19.7h19.7v-19.7h-39.3v-19.7h118v19.7h-19.7v19.7h-19.7v19.7h-19.7v19.7h-19.7v19.7h-19.7v78.6h19.7v19.7h19.7v19.7h19.7v19.7h98.3v-19.7h19.7v-19.7h19.7v-176.9h19.7v-19.7h39.3v235.9Z"/>
  <path d="M1514.8,629.4v19.7h19.7v78.6h-19.7v19.7h-19.7v19.7h-39.3v19.7h-39.3v19.7h-39.3v19.7h-118v-19.7h-19.7v-19.7h-19.7v-19.7h-19.7v-19.7h-19.7v-98.3h19.7v-19.7h19.7v-19.7h39.3v-19.7h39.3v-19.7h39.3v-19.7h59v19.7h59v19.7h19.7v19.7h19.7v19.7h19.7ZM1436.1,767v-19.7h19.7v-19.7h19.7v-59h-19.7v-19.7h-19.7v-19.7h-19.7v-19.7h-19.7v-19.7h-78.6v19.7h-39.3v19.7h-19.7v19.7h-19.7v78.6h19.7v19.7h19.7v19.7h19.7v19.7h98.3v-19.7h39.3Z"/>
  <path d="M728.2,668.7v19.7h19.7v39.3h-19.7v19.7h-19.7v19.7h-19.7v19.7h-19.7v19.7h-19.7v19.7h-176.9v-19.7h-19.7v-19.7h-19.7v-19.7h-19.7v-19.7h-19.7v-39.3h19.7v-19.7h39.3v39.3h19.7v19.7h19.7v19.7h19.7v19.7h137.6v-19.7h19.7v-19.7h19.7v-39.3h-19.7v-19.7h-19.7v-19.7h-176.9v-19.7h-39.3v-19.7h-19.7v-19.7h19.7v-19.7h39.3v-19.7h39.3v-19.7h78.6v19.7h39.3v19.7h19.7v19.7h-39.3v-19.7h-98.3v19.7h-19.7v19.7h19.7v19.7h196.6v19.7h19.7Z"/>
  <path d="M275.9,531.1h-59v-39.3h19.7v-19.7h59v39.3h-19.7v19.7ZM334.9,786.7v19.7h19.7v19.7H.7v-19.7h118v-19.7h-19.7v-157.3h19.7v-19.7h19.7v-19.7h19.7v-19.7h-39.3v-19.7h157.3v19.7h-39.3v19.7h-39.3v19.7h-19.7v19.7h-19.7v137.6h19.7v19.7h39.3v19.7h78.6v-19.7h39.3Z"/>
  <path d="M3087.9,196.7v19.7h19.7v39.3h-19.7v19.7h-19.7v19.7h-19.7v19.7h-19.7v19.7h-19.7v19.7h-176.9v-19.7h-19.7v-19.7h-19.7v-19.7h-19.7v-19.7h-19.7v-39.3h19.7v-19.7h39.3v39.3h19.7v19.7h19.7v19.7h19.7v19.7h137.6v-19.7h19.7v-19.7h19.7v-39.3h-19.7v-19.7h-19.7v-19.7h-176.9v-19.7h-39.3v-19.7h-19.7v-19.7h19.7v-19.7h39.3v-19.7h39.3v-19.7h78.6v19.7h39.3v19.7h19.7v19.7h-39.3v-19.7h-98.3v19.7h-19.7v19.7h19.7v19.7h196.6v19.7h19.7Z"/>
  <path d="M2694.6,196.7v19.7h19.7v39.3h-19.7v19.7h-19.7v19.7h-19.7v19.7h-19.7v19.7h-19.7v19.7h-176.9v-19.7h-19.7v-19.7h-19.7v-19.7h-19.7v-19.7h-19.7v-39.3h19.7v-19.7h39.3v39.3h19.7v19.7h19.7v19.7h19.7v19.7h137.6v-19.7h19.7v-19.7h19.7v-39.3h-19.7v-19.7h-19.7v-19.7h-176.9v-19.7h-39.3v-19.7h-19.7v-19.7h19.7v-19.7h39.3v-19.7h39.3v-19.7h78.6v19.7h39.3v19.7h19.7v19.7h-39.3v-19.7h-98.3v19.7h-19.7v19.7h19.7v19.7h196.6v19.7h19.7Z"/>
  <path d="M2281.7,255.7h39.3v39.3h-39.3v19.7h-19.7v19.7h-19.7v19.7h-196.6v-19.7h-19.7v-19.7h-19.7v-19.7h-19.7v-19.7h-19.7v-98.3h19.7v-19.7h19.7v-19.7h39.3v-19.7h39.3v-19.7h39.3v-19.7h59v19.7h59v19.7h39.3v19.7h19.7v39.3h-39.3v19.7h-235.9v59h19.7v19.7h19.7v19.7h19.7v19.7h157.3v-19.7h19.7v-19.7h19.7v-19.7ZM2065.4,137.7v19.7h-19.7v19.7h176.9v-39.3h-19.7v-19.7h-98.3v19.7h-39.3Z"/>
  <path d="M1672.1,78.8v39.3h19.7v19.7h-19.7v176.9h-19.7v19.7h-19.7v19.7h-39.3v-19.7h-19.7v-19.7h39.3V98.4h19.7v-19.7h39.3ZM1888.4,314.7h39.3v39.3h-78.6v-39.3h-19.7v-39.3h-19.7v-39.3h-19.7v-39.3h-19.7v-39.3h-19.7v-39.3h-59v-19.7h19.7v-19.7h59v19.7h19.7v19.7h19.7v39.3h19.7v39.3h19.7v39.3h19.7v39.3h19.7v39.3Z"/>
  <path d="M1514.8,216.4v19.7h19.7v78.6h-19.7v19.7h-19.7v19.7h-59v-19.7h19.7v-19.7h19.7v-59h-19.7v-19.7h-19.7v-19.7h-19.7v-19.7h-39.3v-19.7h-118v157.3h-19.7v19.7h-39.3v-19.7h-19.7v-19.7h19.7V19.8h19.7V.1h39.3v137.6h19.7v-19.7h39.3v-19.7h19.7v-19.7h59v19.7h-19.7v19.7h-39.3v19.7h59v19.7h39.3v19.7h39.3v19.7h19.7v19.7h19.7Z"/>
  <path d="M1121.5,137.7v19.7h19.7v39.3h-19.7v19.7h-39.3v19.7h-39.3v-19.7h19.7v-19.7h19.7v-19.7h-19.7v-19.7h-19.7v-19.7h-19.7v-19.7h-98.3v19.7h-19.7v19.7h-19.7v19.7h-19.7v157.3h-19.7v19.7h-39.3v-19.7h-19.7v-19.7h19.7V98.4h19.7v-19.7h39.3v59h19.7v-19.7h19.7v-19.7h39.3v-19.7h59v19.7h59v19.7h39.3v19.7h19.7Z"/>
  <path d="M728.2,314.7h19.7v39.3h-59v-39.3h-19.7v-19.7h-39.3v19.7h-39.3v19.7h-39.3v19.7h-118v-19.7h-19.7v-19.7h-19.7v-78.6h19.7v-19.7h19.7v-19.7h39.3v-19.7h59v-19.7h59v-39.3h-19.7v-19.7h-39.3v19.7h-59v-19.7h19.7v-19.7h118v19.7h19.7v19.7h19.7v39.3h19.7v39.3h19.7v39.3h19.7v39.3h19.7v39.3ZM610.2,275.4h39.3v-39.3h-19.7v-39.3h-19.7v-19.7h-59v19.7h-59v19.7h-39.3v78.6h19.7v19.7h98.3v-19.7h39.3v-19.7Z"/>
  <path d="M334.9,78.8v19.7h19.7v157.3h-19.7v19.7h-19.7v19.7h-39.3v19.7h-39.3v19.7h-39.3v19.7h-59v-19.7h-19.7v-19.7h-19.7v-19.7h39.3v19.7h78.6v-19.7h39.3v-19.7h19.7v-19.7h19.7V118.1h-19.7v-19.7h-19.7v-19.7h-19.7v-19.7h-19.7v-19.7h-78.6v19.7h-39.3v19.7h-19.7v255.6h-19.7v19.7H20.3v-19.7H.7v-19.7h19.7V78.8h19.7v-19.7h39.3v-19.7h39.3v-19.7h39.3V.1h59v19.7h59v19.7h19.7v19.7h19.7v19.7h19.7Z"/>
</svg>