<svg width="3108" height="826" viewBox="0 0 3108 826" fill="none" xmlns="http://www.w3.org/2000/svg">
<path d="M3107.59 472.108V531.09H3087.93V550.75H3068.26V570.411H3048.6V590.072H3028.94V629.393H3048.6V649.054H3068.26V668.714H3028.94V649.054H3009.28V629.393H2989.62V649.054H2969.96V668.714H2950.3V688.375H2930.64V708.036H2910.98V727.697H2891.32V747.357H2871.66V767.018H2852V786.679H2832.34V806.339H2812.68V826H2753.69V767.018H2773.35V786.679H2793.01V767.018H2812.68V747.357H2832.34V727.697H2852V708.036H2871.66V688.375H2891.32V668.714H2910.98V649.054H2930.64V629.393H2950.3V609.732H2969.96V590.072H2950.3V570.411H2930.64V550.75H2910.98V511.429H2930.64V531.09H2950.3V550.75H2989.62V531.09H3009.28V511.429H3028.94V491.768H3048.6V472.108H3107.59ZM3068.26 511.429H3087.93V491.768H3068.26V511.429ZM3028.94 531.09V550.75H3048.6V531.09H3028.94ZM2989.62 570.411V590.072H3009.28V570.411H2989.62ZM2930.64 590.072H2950.3V609.732H2930.64V590.072ZM2910.98 609.732H2930.64V629.393H2910.98V609.732ZM2891.32 629.393H2910.98V649.054H2891.32V629.393ZM2871.66 649.054H2891.32V668.714H2871.66V649.054ZM2852 668.714H2871.66V688.375H2852V668.714ZM2832.34 688.375H2852V708.036H2832.34V688.375ZM2812.68 708.036H2832.34V727.697H2812.68V708.036ZM2793.01 727.697H2812.68V747.357H2793.01V727.697ZM2773.35 747.357H2793.01V767.018H2773.35V747.357Z" fill="black"/>
<path d="M2694.63 668.715V688.375H2714.3V727.697H2694.63V747.357H2674.97V767.018H2655.31V786.679H2635.65V806.339H2615.99V826H2439.05V806.339H2419.39V786.679H2399.72V767.018H2380.06V747.357H2360.4V708.036H2380.06V688.375H2419.39V727.697H2439.05V747.357H2458.71V767.018H2478.37V786.679H2615.99V767.018H2635.65V747.357H2655.31V708.036H2635.65V688.375H2615.99V668.715H2439.05V649.054H2399.72V629.393H2380.06V609.733H2399.72V590.072H2439.05V570.411H2478.37V550.75H2557.01V570.411H2596.33V590.072H2615.99V609.733H2576.67V590.072H2478.37V609.733H2458.71V629.393H2478.37V649.054H2674.97V668.715H2694.63Z" fill="black"/>
<path d="M2301.34 609.733V629.393H2321V668.715H2301.34V688.375H2262.02V708.036H2222.7V688.375H2242.36V668.715H2262.02V649.054H2242.36V629.393H2222.7V609.733H2203.04V590.072H2104.74V609.733H2085.08V629.393H2065.42V649.054H2045.76V806.339H2026.09V826H1986.77V806.339H1967.11V786.679H1986.77V570.411H2006.43V550.75H2045.76V609.733H2065.42V590.072H2085.08V570.411H2124.4V550.75H2183.38V570.411H2242.36V590.072H2281.68V609.733H2301.34Z" fill="black"/>
<path d="M1888.39 786.679H1927.71V806.339H1908.05V826H1868.73V806.339H1849.07V786.679H1809.75V806.339H1770.43V826H1652.46V806.339H1632.8V786.679H1613.14V767.018H1593.48V747.357H1573.82V649.054H1593.48V629.393H1613.14V609.733H1632.8V590.072H1652.46V570.411H1613.14V550.75H1731.11V570.411H1711.45V590.072H1691.79V609.733H1672.13V629.393H1652.46V649.054H1632.8V727.697H1652.46V747.357H1672.13V767.018H1691.79V786.679H1790.09V767.018H1809.75V747.357H1829.41V570.411H1849.07V550.75H1888.39V786.679Z" fill="black"/>
<path d="M1514.76 629.393V649.054H1534.42V727.697H1514.76V747.357H1495.1V767.018H1455.78V786.679H1416.46V806.339H1377.14V826H1259.17V806.339H1239.51V786.679H1219.85V767.018H1200.19V747.357H1180.53V649.054H1200.19V629.393H1219.85V609.733H1259.17V590.072H1298.5V570.411H1337.82V550.75H1396.8V570.411H1455.78V590.072H1475.44V609.733H1495.1V629.393H1514.76ZM1436.12 767.018V747.357H1455.78V727.697H1475.44V668.715H1455.78V649.054H1436.12V629.393H1416.46V609.733H1396.8V590.072H1318.16V609.733H1278.84V629.393H1259.17V649.054H1239.51V727.697H1259.17V747.357H1278.84V767.018H1298.5V786.679H1396.8V767.018H1436.12Z" fill="black"/>
<path d="M728.183 668.715V688.375H747.843V727.697H728.183V747.357H708.522V767.018H688.861V786.679H669.201V806.339H649.54V826H472.594V806.339H452.933V786.679H433.272V767.018H413.612V747.357H393.951V708.036H413.612V688.375H452.933V727.697H472.594V747.357H492.254V767.018H511.915V786.679H649.54V767.018H669.201V747.357H688.861V708.036H669.201V688.375H649.54V668.715H472.594V649.054H433.272V629.393H413.612V609.733H433.272V590.072H472.594V570.411H511.915V550.75H590.558V570.411H629.879V590.072H649.54V609.733H610.219V590.072H511.915V609.733H492.254V629.393H511.915V649.054H708.522V668.715H728.183Z" fill="black"/>
<path d="M275.91 531.09H216.928V491.768H236.589V472.108H295.571V511.429H275.91V531.09ZM334.892 786.679V806.339H354.553V826H0.660645V806.339H118.625V786.679H98.964V629.393H118.625V609.732H138.285V590.072H157.946V570.411H118.625V550.75H275.91V570.411H236.589V590.072H197.267V609.732H177.607V629.393H157.946V767.018H177.607V786.679H216.928V806.339H295.571V786.679H334.892Z" fill="black"/>
<path d="M3087.93 196.715V216.375H3107.59V255.697H3087.93V275.357H3068.26V295.018H3048.6V314.679H3028.94V334.339H3009.28V354H2832.34V334.339H2812.68V314.679H2793.01V295.018H2773.35V275.357H2753.69V236.036H2773.35V216.375H2812.68V255.697H2832.34V275.357H2852V295.018H2871.66V314.679H3009.28V295.018H3028.94V275.357H3048.6V236.036H3028.94V216.375H3009.28V196.715H2832.34V177.054H2793.01V157.393H2773.35V137.733H2793.01V118.072H2832.34V98.4112H2871.66V78.7505H2950.3V98.4112H2989.62V118.072H3009.28V137.733H2969.96V118.072H2871.66V137.733H2852V157.393H2871.66V177.054H3068.26V196.715H3087.93Z" fill="black"/>
<path d="M2694.63 196.715V216.375H2714.3V255.697H2694.63V275.357H2674.97V295.018H2655.31V314.679H2635.65V334.339H2615.99V354H2439.05V334.339H2419.39V314.679H2399.72V295.018H2380.06V275.357H2360.4V236.036H2380.06V216.375H2419.39V255.697H2439.05V275.357H2458.71V295.018H2478.37V314.679H2615.99V295.018H2635.65V275.357H2655.31V236.036H2635.65V216.375H2615.99V196.715H2439.05V177.054H2399.72V157.393H2380.06V137.733H2399.72V118.072H2439.05V98.4112H2478.37V78.7505H2557.01V98.4112H2596.33V118.072H2615.99V137.733H2576.67V118.072H2478.37V137.733H2458.71V157.393H2478.37V177.054H2674.97V196.715H2694.63Z" fill="black"/>
<path d="M2281.68 255.697H2321V295.018H2281.68V314.679H2262.02V334.339H2242.36V354H2045.76V334.339H2026.09V314.679H2006.43V295.018H1986.77V275.357H1967.11V177.054H1986.77V157.393H2006.43V137.733H2045.76V118.072H2085.08V98.4112H2124.4V78.7505H2183.38V98.4112H2242.36V118.072H2281.68V137.733H2301.34V177.054H2262.02V196.715H2026.09V255.697H2045.76V275.357H2065.42V295.018H2085.08V314.679H2242.36V295.018H2262.02V275.357H2281.68V255.697ZM2065.42 137.733V157.393H2045.76V177.054H2222.7V137.733H2203.04V118.072H2104.74V137.733H2065.42Z" fill="black"/>
<path d="M1672.13 78.7505V118.072H1691.79V137.733H1672.13V314.679H1652.46V334.339H1632.8V354H1593.48V334.339H1573.82V314.679H1613.14V98.4112H1632.8V78.7505H1672.13ZM1888.39 314.679H1927.71V354H1849.07V314.679H1829.41V275.357H1809.75V236.036H1790.09V196.715H1770.43V157.393H1750.77V118.072H1691.79V98.4112H1711.45V78.7505H1770.43V98.4112H1790.09V118.072H1809.75V157.393H1829.41V196.715H1849.07V236.036H1868.73V275.357H1888.39V314.679Z" fill="black"/>
<path d="M1514.76 216.375V236.036H1534.42V314.679H1514.76V334.339H1495.1V354H1436.12V334.339H1455.78V314.679H1475.44V255.697H1455.78V236.036H1436.12V216.375H1416.46V196.714H1377.14V177.054H1259.17V334.339H1239.51V354H1200.19V334.339H1180.53V314.679H1200.19V19.7683H1219.85V0.107666H1259.17V137.732H1278.84V118.072H1318.16V98.4111H1337.82V78.7504H1396.8V98.4111H1377.14V118.072H1337.82V137.732H1396.8V157.393H1436.12V177.054H1475.44V196.714H1495.1V216.375H1514.76Z" fill="black"/>
<path d="M1121.47 137.733V157.393H1141.13V196.715H1121.47V216.375H1082.15V236.036H1042.83V216.375H1062.49V196.715H1082.15V177.054H1062.49V157.393H1042.83V137.733H1023.17V118.072H924.866V137.733H905.206V157.393H885.545V177.054H865.884V334.339H846.224V354H806.902V334.339H787.242V314.679H806.902V98.4112H826.563V78.7505H865.884V137.733H885.545V118.072H905.206V98.4112H944.527V78.7505H1003.51V98.4112H1062.49V118.072H1101.81V137.733H1121.47Z" fill="black"/>
<path d="M728.183 314.679H747.843V354H688.861V314.679H669.201V295.018H629.879V314.679H590.558V334.339H551.236V354H433.272V334.339H413.612V314.679H393.951V236.036H413.612V216.375H433.272V196.715H472.594V177.054H531.576V157.393H590.558V118.072H570.897V98.4112H531.576V118.072H472.594V98.4112H492.254V78.7505H610.219V98.4112H629.879V118.072H649.54V157.393H669.201V196.715H688.861V236.036H708.522V275.357H728.183V314.679ZM610.219 275.357H649.54V236.036H629.879V196.715H610.219V177.054H551.236V196.715H492.254V216.375H452.933V295.018H472.594V314.679H570.897V295.018H610.219V275.357Z" fill="black"/>
<path d="M334.892 78.7504V98.4111H354.553V255.697H334.892V275.357H315.232V295.018H275.91V314.679H236.589V334.339H197.267V354H138.285V334.339H118.625V314.679H98.964V295.018H138.285V314.679H216.928V295.018H256.249V275.357H275.91V255.697H295.571V118.072H275.91V98.4111H256.249V78.7504H236.589V59.0897H216.928V39.429H138.285V59.0897H98.964V78.7504H79.3034V334.339H59.6427V354H20.3213V334.339H0.660645V314.679H20.3213V78.7504H39.982V59.0897H79.3034V39.429H118.625V19.7683H157.946V0.107666H216.928V19.7683H275.91V39.429H295.571V59.0897H315.232V78.7504H334.892Z" fill="black"/>
</svg>
