<?xml version="1.0" encoding="utf-8"?>
<!-- Generator: Adobe Illustrator 24.0.3, SVG Export Plug-In . SVG Version: 6.00 Build 0)  -->
<svg version="1.1" id="Layer_1" xmlns="http://www.w3.org/2000/svg" xmlns:xlink="http://www.w3.org/1999/xlink" x="0px" y="0px"
	 viewBox="0 0 847.5 182.9" style="enable-background:new 0 0 847.5 182.9;" xml:space="preserve">
<g>
	<path d="M76.2,15.2H64L54.9,61H61l-3,15.2h-6.1L30.5,182.9H0L36.6,0h42.7L76.2,15.2z"/>
	<path d="M115.8,182.9H85.4l20.7-103.7l-5.5-3L79.3,182.9H48.8L85.4,0h67.1L115.8,182.9z M118.9,15.2h-6.1l-8.5,42.7l5.5,3
		L118.9,15.2z"/>
	<path d="M213.4,61h-30.5l9.1-45.7H186l-8.5,42.7l32.9,18.3L189,182.9h-67.1l21.3-106.7h30.5l-18.3,91.5h6.1l17.7-88.4L146.3,61
		l12.2-61h67.1L213.4,61z"/>
	<path d="M271.3,15.2h-6.1l-33.5,167.7h-30.5l33.5-167.7h-6.1l3-15.2h42.7L271.3,15.2z"/>
	<path d="M337.2,143.3l-7.9,39.6h-67.1l11.6-57.9h30.5L337.2,143.3z M341.8,120.4h-30.5l8.5-42.7h-6.1l-8.5,42.7h-30.5l11.6-57.9
		h67.1L341.8,120.4z M354.3,57.9h-30.5l2.4-12.2l-5.5-3l-3,15.2h-30.5L298.8,0h67.1L354.3,57.9z M306.1,146.3l-5.5-3l-4.9,24.4h6.1
		L306.1,146.3z M332.3,15.2h-6.1l-1.8,9.1l5.5,3L332.3,15.2z"/>
	<path d="M429.9,15.2h-12.2L408.5,61h6.1l-3,15.2h-6.1l-21.3,106.7h-30.5L390.2,0h42.7L429.9,15.2z"/>
	<path d="M506.1,0l-36.6,182.9h-67.1L439,0h30.5L436,167.7h6.1L475.6,0H506.1z"/>
	<path d="M567.1,61h-30.5l9.1-45.7h-6.1l-8.5,42.7L564,76.2l-21.3,106.7h-30.5l20.7-103.7l-5.5-3l-21.3,106.7h-30.5L512.2,0h67.1
		L567.1,61z"/>
	<path d="M625,15.2h-6.1l-30.5,152.4h6.1l-3,15.2h-42.7l3-15.2h6.1l30.5-152.4h-6.1l3-15.2H628L625,15.2z"/>
	<path d="M664.6,182.9h-67.1L634.1,0h67.1L664.6,182.9z M667.7,15.2h-6.1l-30.5,152.4h6.1L667.7,15.2z"/>
	<path d="M774.4,0l-36.6,182.9h-67.1L707.3,0h30.5l-33.5,167.7h6.1L743.9,0H774.4z"/>
	<path d="M835.3,61h-30.5l9.1-45.7h-6.1l-8.5,42.7l32.9,18.3L811,182.9h-67.1l21.3-106.7h30.5l-18.3,91.5h6.1l17.7-88.4L768.3,61
		l12.2-61h67.1L835.3,61z"/>
</g>
</svg>
