<?xml version="1.0" encoding="utf-8"?>
<!-- Generator: Adobe Illustrator 23.0.6, SVG Export Plug-In . SVG Version: 6.00 Build 0)  -->
<svg version="1.1" id="Layer_1" xmlns="http://www.w3.org/2000/svg" xmlns:xlink="http://www.w3.org/1999/xlink" x="0px" y="0px"
	 viewBox="0 0 266.6 104" style="enable-background:new 0 0 266.6 104;" xml:space="preserve">
<g>
	<path d="M40,50l10-10V30l10-10H30l10-10h20V0H10v15l5,5h5L10,30H0v15l5,5H40z M30,30v-5l5,5h5L30,40H20L30,30z"/>
	<polygon points="51.6,30 51.6,45 56.6,50 91.7,50 101.7,40 101.7,30 91.7,30 81.7,40 71.7,40 81.7,30 81.7,20 71.7,20 61.6,30 	"/>
	<polygon points="96.7,10 91.7,15 91.7,20 101.7,20 111.7,10 111.7,0 61.6,0 61.6,15 66.7,20 71.7,20 81.7,10 	"/>
	<path d="M103.3,30v15l5,5h15V40l10-10v-5l5,5h5l-10,10v5l5,5h15V35l-5-5h5l10-10V0h-50v15l5,5h5l-10,10H103.3z M143.3,10h10l-10,10
		h-10L143.3,10z"/>
	<polygon points="185,20 174.9,30 154.9,30 154.9,45 159.9,50 174.9,50 195,30 195,20 205,10 215,10 215,0 164.9,0 164.9,15 
		169.9,20 	"/>
	<polygon points="256.6,0 256.6,10 246.6,20 236.6,20 246.6,10 246.6,0 216.6,0 216.6,15 221.6,20 226.6,20 226.6,25 231.6,30 
		246.6,30 236.6,40 226.6,40 226.6,35 221.6,30 206.6,30 206.6,45 211.6,50 246.6,50 256.6,40 256.6,30 266.6,20 266.6,10 	"/>
	<polygon points="60,54 20,54 10,64 10,74 30,74 30,64 50,64 40,74 30,74 30,79 35,84 40,84 30,94 20,94 20,89 15,84 0,84 0,99 
		5,104 40,104 50,94 50,84 60,74 	"/>
	<path d="M111.7,54h-40l-10,10v10h10l-20,20v5l5,5h35l10-10V84l10-10V54z M91.7,74v10l-10,10h-10l10-10V74l10-10h10L91.7,74z"/>
	<path d="M163.3,54h-40l-10,10v10h10l-20,20v5l5,5h35l10-10V84l10-10V54z M143.3,74v10l-10,10h-10l10-10V74l10-10h10L143.3,74z"/>
	<path d="M224.1,65.7c-2.5,0-4.2,3.4-4.2,6.7c0,3.3,1.7,6.7,4.2,6.7s4.2-3.3,4.2-6.7C228.2,69,226.6,65.7,224.1,65.7z"/>
	<path d="M231.6,54c-6.4,0-12.2,2.4-16.6,6.3V54h-40l-10,10v10h10l-20,20v5l5,5h35l10-10V84l1.8-1.8c1.5,12.4,12,21.8,24.8,21.8
		c13.9,0,25-11.1,25-25C256.6,65.1,245.5,54,231.6,54z M195,74v10l-10,10h-10l10-10V74l10-10h10L195,74z M231.6,102.4
		c-12.5,0-22.5-9.2-23.3-21.7l3.7-3.7c1.8,6.6,9.5,13.8,19.6,13.7c11.7,0,20-9.2,20-16.7H250c0,6.4-7.2,15-18.4,15
		c-10.2,0-17.1-7.7-18.2-13.5L215,74V62.5c4.3-4.3,10.2-6.9,16.6-6.9c13.3,0,23.4,10.1,23.4,23.4S244.9,102.4,231.6,102.4z"/>
	<path d="M239.1,65.7c-2.5,0-4.2,3.4-4.2,6.7c0,3.4,1.7,6.7,4.2,6.7s4.2-3.3,4.2-6.7C243.2,69,241.6,65.7,239.1,65.7z"/>
</g>
</svg>
