<?xml version="1.0" encoding="utf-8"?>
<!-- Generator: Adobe Illustrator 23.0.6, SVG Export Plug-In . SVG Version: 6.00 Build 0)  -->
<svg version="1.1" id="Layer_1" xmlns="http://www.w3.org/2000/svg" xmlns:xlink="http://www.w3.org/1999/xlink" x="0px" y="0px"
	 viewBox="0 0 248.7 107.6" style="enable-background:new 0 0 248.7 107.6;" xml:space="preserve">
<g>
	<path d="M12.4,5.8h-3v101.4H3V5.8H0V0.4h12.4V5.8z"/>
	<path d="M30.3,7.9v99.3h-6.4V53.8h-3v53.4h-6.4V7.9c0-5.6,2.3-7.9,7.9-7.9S30.3,2.3,30.3,7.9z M23.9,6.8c0-1.1-0.4-1.5-1.5-1.5
		c-1.1,0-1.5,0.4-1.5,1.5v41.6h3V6.8z"/>
	<path d="M42.7,101.9v5.3h-9.4V0.4h6.4v101.4H42.7z"/>
	<path d="M54.2,101.9v5.3h-9.4V0.4h6.4v101.4H54.2z"/>
	<path d="M80.1,48.5v5.3h-1.5v45.9c0,5.6-2.3,7.9-7.9,7.9s-7.9-2.3-7.9-7.9V56.4c0-2.3,0.4-4.1,1.3-5.3c-0.9-1.1-1.3-2.8-1.3-5.1
		v-38c0-5.6,2.3-7.9,7.9-7.9s7.9,2.3,7.9,7.9v35.2h-6.4V6.8c0-1.1-0.4-1.5-1.5-1.5c-1.1,0-1.5,0.4-1.5,1.5V47c0,1.1,0.4,1.5,1.5,1.5
		H80.1z M70.7,53.8c-1.1,0-1.5,0.4-1.5,1.5v45.5c0,1.1,0.4,1.5,1.5,1.5c1.1,0,1.5-0.4,1.5-1.5v-47H70.7z"/>
	<path d="M104.6,0.4v106.8h-6.4V53.8h-3v53.4h-6.4V0.4h6.4v48h3v-48H104.6z"/>
	<path d="M123.4,7.9v99.3H117V53.8h-3v53.4h-6.4V7.9c0-5.6,2.3-7.9,7.9-7.9S123.4,2.3,123.4,7.9z M117,6.8c0-1.1-0.4-1.5-1.5-1.5
		S114,5.8,114,6.8v41.6h3V6.8z"/>
	<path d="M151.8,0.4l-0.2,99.3c0,5.6-2.3,7.9-7.9,7.9s-7.9-2.3-7.9-7.9V6.8c0-1.1-0.4-1.5-1.5-1.5s-1.5,0.4-1.5,1.5v100.4h-6.4V7.9
		c0-5.6,2.3-7.9,7.9-7.9s7.9,2.3,7.9,7.9v92.9c0,1.1,0.4,1.5,1.5,1.5c1.1,0,1.5-0.4,1.5-1.5v-1.1l0.2-99.3H151.8z"/>
	<path d="M170.6,8.3v91c0,5.6-2.3,7.9-7.9,7.9h-7.9V0.4h7.9C168.2,0.4,170.6,2.8,170.6,8.3z M164.2,7.3c0-1.1-0.4-1.5-1.5-1.5h-1.5
		v96.1h1.5c1.1,0,1.5-0.4,1.5-1.5V7.3z"/>
	<path d="M183,6.8c0-1.1-0.4-1.5-1.5-1.5S180,5.8,180,6.8V47c0,1.1,0.4,1.5,1.5,1.5c5.6,0,7.9,2.3,7.9,7.9v43.3
		c0,5.6-2.3,7.9-7.9,7.9s-7.9-2.3-7.9-7.9V59.1h6.4v41.6c0,1.1,0.4,1.5,1.5,1.5s1.5-0.4,1.5-1.5V55.3c0-1.1-0.4-1.5-1.5-1.5
		c-5.6,0-7.9-2.3-7.9-7.9v-38c0-5.6,2.3-7.9,7.9-7.9s7.9,2.3,7.9,7.9v35.2H183V6.8z"/>
	<path d="M208.2,7.9v91.8c0,5.6-2.3,7.9-7.9,7.9s-7.9-2.3-7.9-7.9V7.9c0-5.6,2.3-7.9,7.9-7.9S208.2,2.3,208.2,7.9z M201.8,6.8
		c0-1.1-0.4-1.5-1.5-1.5s-1.5,0.4-1.5,1.5v94c0,1.1,0.4,1.5,1.5,1.5s1.5-0.4,1.5-1.5V6.8z"/>
	<path d="M236.4,7.9v99.3H230V6.8c0-1.1-0.4-1.5-1.5-1.5c-1.1,0-1.5,0.4-1.5,1.5v100.4h-6.4V6.8c0-1.1-0.4-1.5-1.5-1.5
		s-1.5,0.4-1.5,1.5v100.4h-6.4V7.9c0-5.6,2.3-7.9,7.9-7.9c1.9,0,3.4,0.2,4.7,0.9c1.3-0.6,2.8-0.9,4.7-0.9C234,0,236.4,2.3,236.4,7.9
		z"/>
	<path d="M245.8,5.8v42.7h1.5v5.3h-1.5v48h3v5.3h-9.4V0.4h9.4v5.3H245.8z"/>
</g>
</svg>
